<svg xmlns="http://www.w3.org/2000/svg" width="30" height="30" viewBox="0 0 30 30">
  <g id="vuesax_bulk_call-calling" data-name="vuesax/bulk/call-calling" transform="translate(-172 -188)">
    <g id="call-calling" transform="translate(172 188)">
      <path id="Vector" d="M5.463,6.438A.963.963,0,0,1,4.5,5.475,4.351,4.351,0,0,0,3.262,3.213a3.489,3.489,0,0,0-2.3-1.288A.962.962,0,1,1,.963,0,5.313,5.313,0,0,1,4.675,1.888,5.9,5.9,0,0,1,6.437,5.463.976.976,0,0,1,5.463,6.438Z" transform="translate(16.563 7)" fill="#fff"/>
      <path id="Vector-2" data-name="Vector" d="M9.962,10.938A.963.963,0,0,1,9,9.975,8.047,8.047,0,0,0,.962,1.938.969.969,0,0,1,.95,0a9.987,9.987,0,0,1,9.975,9.975A.971.971,0,0,1,9.962,10.938Z" transform="translate(16.575 2.5)" fill="#fff"/>
      <path id="Vector-3" data-name="Vector" d="M12.238,15.262,8.15,19.35q-.675-.6-1.313-1.237A35.517,35.517,0,0,1,3.35,14.025,22.285,22.285,0,0,1,.9,9.763,10.528,10.528,0,0,1,0,5.675,6.466,6.466,0,0,1,.45,3.263,5.753,5.753,0,0,1,1.888,1.175,3.662,3.662,0,0,1,4.488,0,2.349,2.349,0,0,1,5.5.225a2.038,2.038,0,0,1,.838.7l2.9,4.088a4.278,4.278,0,0,1,.5.875,1.976,1.976,0,0,1,.175.763,1.7,1.7,0,0,1-.262.887,4.252,4.252,0,0,1-.7.887L8,9.412a.669.669,0,0,0-.2.5,1.135,1.135,0,0,0,.038.287c.038.1.075.175.1.25A10.373,10.373,0,0,0,9.1,12.05c.563.65,1.162,1.313,1.813,1.975C11.362,14.463,11.8,14.887,12.238,15.262Z" transform="translate(2.5 2.5)" fill="#fff" opacity="0.4"/>
      <path id="Vector-4" data-name="Vector" d="M15.462,5.363a3.175,3.175,0,0,1-.187,1.063,3.053,3.053,0,0,1-.125.3A5.158,5.158,0,0,1,14.3,8a5.635,5.635,0,0,1-2.05,1.475c-.012,0-.025.012-.037.012a6.315,6.315,0,0,1-2.4.463,10.417,10.417,0,0,1-4.075-.912,21.955,21.955,0,0,1-4.3-2.475C.95,6.2.463,5.837,0,5.45L4.087,1.363a7.023,7.023,0,0,0,.925.6c.063.025.138.063.225.1a.863.863,0,0,0,.313.05A.688.688,0,0,0,6.062,1.9l.95-.938a3.835,3.835,0,0,1,.9-.7A1.665,1.665,0,0,1,8.8,0a2,2,0,0,1,.763.163,4.834,4.834,0,0,1,.875.488l4.137,2.937a1.9,1.9,0,0,1,.687.8A2.565,2.565,0,0,1,15.462,5.363Z" transform="translate(12 17.55)" fill="#fff"/>
      <path id="Vector-5" data-name="Vector" d="M0,0H30V30H0Z" fill="none" opacity="0"/>
    </g>
  </g>
</svg>
